<mxfile host="app.diagrams.net" modified="2023-07-11T14:06:25.652Z" agent="Mozilla/5.0 (Windows NT 10.0; Win64; x64) AppleWebKit/537.36 (KHTML, like Gecko) Chrome/114.0.0.0 Safari/537.36" version="21.6.1" etag="txj8d3BcNDhv360mnoft" type="github">
  <diagram name="Page-1" id="hkqHJbVVPoV7zh9crmk0">
    <mxGraphModel>
      <root>
        <mxCell id="0" />
        <mxCell id="1" parent="0" />
      </root>
    </mxGraphModel>
  </diagram>
</mxfile>
